<svg xmlns="http://www.w3.org/2000/svg" width="1440" height="420" viewBox="0 0 1440 420"><rect width="1440" height="420" fill="#f4efe6"/><rect x="26" y="26" width="1388" height="368" rx="28" fill="#fff9ef" stroke="#d4c9b8" stroke-width="1.5"/><style>text{font-family:"Avenir Next","Futura","Trebuchet MS",sans-serif;}</style><text x="72" y="70" font-size="18" font-weight="800" fill="#5c6773">CANDIDATE MIXABILITY PAIR #12</text><text x="72" y="112" font-size="34" font-weight="800" fill="#1f2933">Butch - Schlecker (Original Mix) → AIROD - Rave Cycle (Original Mix)</text><text x="72" y="146" font-size="15" fill="#5c6773">Mixability score 0.6849 · confidence 0.62 · pair window score 2.027</text><text x="72" y="164" font-size="14" fill="#5c6773">Decision class review required · suggested strategy short blend</text><rect x="72" y="168" width="320" height="14" rx="7" fill="#d4c9b8" fill-opacity="0.55"/><rect x="72" y="168" width="219.2" height="14" rx="7" fill="#111827"/><rect x="422.0" y="154.0" rx="14" ry="14" width="266.4" height="28" fill="#f59e0b" fill-opacity="0.16" stroke="#f59e0b" stroke-opacity="0.45"/><text x="434.0" y="172.0" font-size="13" fill="#1f2933">harmonic risk 0.56 — unknown key move</text><text x="72" y="196" font-size="13" fill="#5c6773">Candidate overlap from current transition-window and pair-decision models; not DJ-validated.</text><text x="72.0" y="210.0" font-size="18" font-weight="700" fill="#1f2933">Butch - Schlecker (Original Mix)</text><text x="72.0" y="230.0" font-size="13" fill="#5c6773">mix-out window 6:12–6:22</text><rect x="72.0" y="224.0" width="1296.0" height="72" rx="18" fill="#0f766e" fill-opacity="0.07" stroke="#d4c9b8" stroke-opacity="0.55"/><rect x="1333.6" y="226.0" width="33.9" height="68" rx="16" fill="#14b8a6" fill-opacity="0.22" stroke="#14b8a6" stroke-opacity="0.7"/><polygon points="72.00,235.05 73.30,230.38 74.59,240.28 75.89,231.25 77.19,234.42 78.49,231.23 79.78,231.83 81.08,240.04 82.38,234.16 83.68,233.02 84.97,232.68 86.27,232.22 87.57,240.35 88.86,233.95 90.16,234.43 91.46,230.30 92.76,233.19 94.05,228.64 95.35,232.43 96.65,232.44 97.95,233.90 99.24,231.05 100.54,234.15 101.84,232.21 103.14,233.59 104.43,231.43 105.73,231.02 107.03,231.53 108.32,236.08 109.62,229.02 110.92,231.82 112.22,229.05 113.51,232.83 114.81,237.26 116.11,231.16 117.41,233.09 118.70,233.21 120.00,234.21 121.30,234.38 122.59,232.03 123.89,233.22 125.19,231.10 126.49,233.68 127.78,237.01 129.08,233.18 130.38,230.54 131.68,234.68 132.97,231.65 134.27,237.95 135.57,229.07 136.86,232.25 138.16,229.71 139.46,230.70 140.76,233.06 142.05,232.09 143.35,233.03 144.65,232.03 145.95,234.05 147.24,239.62 148.54,233.36 149.84,232.05 151.14,231.30 152.43,228.36 153.73,237.00 155.03,230.13 156.32,232.71 157.62,232.67 158.92,232.61 160.22,238.36 161.51,231.67 162.81,233.83 164.11,231.08 165.41,228.73 166.70,234.19 168.00,228.79 169.30,231.59 170.59,233.57 171.89,228.67 173.19,233.91 174.49,229.53 175.78,231.32 177.08,229.13 178.38,232.51 179.68,229.64 180.97,234.63 182.27,233.05 183.57,230.35 184.86,230.11 186.16,228.55 187.46,231.76 188.76,230.11 190.05,231.84 191.35,228.81 192.65,235.25 193.95,233.34 195.24,233.13 196.54,231.51 197.84,231.02 199.14,229.98 200.43,235.05 201.73,231.19 203.03,233.89 204.32,232.29 205.62,234.54 206.92,233.38 208.22,233.10 209.51,232.93 210.81,230.79 212.11,227.98 213.41,236.56 214.70,230.48 216.00,229.58 217.30,232.46 218.59,231.49 219.89,232.55 221.19,231.55 222.49,233.45 223.78,231.34 225.08,232.99 226.38,242.54 227.68,233.72 228.97,236.92 230.27,238.07 231.57,236.50 232.86,238.46 234.16,235.53 235.46,233.05 236.76,231.92 238.05,229.36 239.35,233.33 240.65,234.01 241.95,233.22 243.24,231.11 244.54,228.24 245.84,228.13 247.14,232.60 248.43,234.72 249.73,229.91 251.03,233.36 252.32,233.95 253.62,230.29 254.92,229.83 256.22,233.47 257.51,233.20 258.81,234.75 260.11,228.87 261.41,229.02 262.70,230.53 264.00,232.47 265.30,236.30 266.59,229.73 267.89,230.85 269.19,229.43 270.49,233.80 271.78,235.57 273.08,234.14 274.38,235.13 275.68,231.44 276.97,231.54 278.27,231.32 279.57,231.50 280.86,236.03 282.16,236.96 283.46,232.84 284.76,231.74 286.05,231.11 287.35,230.89 288.65,231.75 289.95,233.14 291.24,237.75 292.54,232.30 293.84,231.12 295.14,230.01 296.43,232.78 297.73,236.80 299.03,230.76 300.32,229.22 301.62,228.93 302.92,229.82 304.22,235.30 305.51,235.32 306.81,232.19 308.11,229.85 309.41,228.46 310.70,233.04 312.00,232.08 313.30,229.77 314.59,230.40 315.89,230.64 317.19,236.71 318.49,234.19 319.78,233.97 321.08,230.37 322.38,230.58 323.68,234.29 324.97,229.85 326.27,231.95 327.57,229.50 328.86,237.65 330.16,234.86 331.46,232.20 332.76,235.02 334.05,228.73 335.35,229.41 336.65,230.99 337.95,234.15 339.24,230.24 340.54,231.26 341.84,232.74 343.14,233.75 344.43,233.93 345.73,234.79 347.03,232.85 348.32,231.71 349.62,230.33 350.92,235.88 352.22,229.87 353.51,231.23 354.81,233.82 356.11,233.08 357.41,231.57 358.70,230.20 360.00,231.24 361.30,231.78 362.59,230.11 363.89,232.46 365.19,229.30 366.49,232.12 367.78,231.67 369.08,232.90 370.38,235.44 371.68,232.03 372.97,231.32 374.27,231.19 375.57,231.85 376.86,228.77 378.16,232.51 379.46,230.55 380.76,230.57 382.05,232.75 383.35,236.07 384.65,229.17 385.95,229.43 387.24,230.77 388.54,233.60 389.84,233.80 391.14,233.29 392.43,231.78 393.73,233.09 395.03,233.85 396.32,234.82 397.62,233.69 398.92,232.12 400.22,234.28 401.51,234.43 402.81,237.97 404.11,231.71 405.41,233.78 406.70,234.99 408.00,231.26 409.30,229.50 410.59,231.93 411.89,233.37 413.19,234.75 414.49,235.91 415.78,239.55 417.08,229.39 418.38,232.42 419.68,234.38 420.97,236.45 422.27,235.17 423.57,231.28 424.86,230.08 426.16,233.63 427.46,234.11 428.76,230.27 430.05,235.76 431.35,232.38 432.65,233.62 433.95,234.84 435.24,234.77 436.54,233.69 437.84,232.28 439.14,232.87 440.43,233.79 441.73,230.92 443.03,236.03 444.32,232.24 445.62,233.96 446.92,234.36 448.22,234.41 449.51,232.55 450.81,230.15 452.11,231.45 453.41,235.08 454.70,233.67 456.00,234.52 457.30,232.27 458.59,230.15 459.89,231.64 461.19,233.63 462.49,234.00 463.78,231.34 465.08,230.32 466.38,233.68 467.68,235.71 468.97,232.63 470.27,231.18 471.57,228.91 472.86,228.35 474.16,233.25 475.46,232.87 476.76,229.91 478.05,229.75 479.35,232.35 480.65,232.56 481.95,229.90 483.24,229.35 484.54,228.57 485.84,229.34 487.14,232.39 488.43,232.31 489.73,228.89 491.03,231.00 492.32,230.20 493.62,228.66 494.92,233.20 496.22,233.35 497.51,231.18 498.81,231.03 500.11,230.94 501.41,235.32 502.70,231.54 504.00,230.18 505.30,230.71 506.59,231.85 507.89,235.69 509.19,228.91 510.49,232.25 511.78,232.53 513.08,231.67 514.38,234.26 515.68,231.82 516.97,230.72 518.27,228.73 519.57,230.92 520.86,232.94 522.16,229.82 523.46,229.84 524.76,229.21 526.05,231.75 527.35,237.44 528.65,230.12 529.95,233.60 531.24,229.35 532.54,232.14 533.84,229.83 535.14,230.08 536.43,230.07 537.73,233.14 539.03,236.97 540.32,234.09 541.62,240.21 542.92,234.92 544.22,243.10 545.51,240.31 546.81,238.34 548.11,235.13 549.41,237.79 550.70,240.52 552.00,240.89 553.30,236.37 554.59,242.42 555.89,237.18 557.19,238.59 558.49,244.68 559.78,242.00 561.08,244.56 562.38,239.44 563.68,243.35 564.97,240.58 566.27,245.95 567.57,242.99 568.86,245.50 570.16,244.54 571.46,240.43 572.76,246.23 574.05,244.48 575.35,244.19 576.65,245.72 577.95,244.62 579.24,244.86 580.54,243.82 581.84,241.56 583.14,242.06 584.43,243.31 585.73,243.90 587.03,240.42 588.32,243.40 589.62,241.88 590.92,246.91 592.22,238.27 593.51,244.27 594.81,244.04 596.11,241.10 597.41,244.54 598.70,243.24 600.00,242.09 601.30,238.50 602.59,240.88 603.89,244.54 605.19,241.87 606.49,243.86 607.78,241.45 609.08,241.80 610.38,237.71 611.68,241.09 612.97,240.49 614.27,239.61 615.57,243.87 616.86,244.64 618.16,241.25 619.46,239.21 620.76,237.07 622.05,239.08 623.35,238.23 624.65,237.63 625.95,241.60 627.24,244.45 628.54,238.66 629.84,242.52 631.14,240.87 632.43,244.17 633.73,243.30 635.03,243.27 636.32,241.96 637.62,241.42 638.92,236.65 640.22,240.09 641.51,243.14 642.81,244.76 644.11,242.59 645.41,241.97 646.70,245.90 648.00,247.22 649.30,244.68 650.59,239.48 651.89,240.81 653.19,237.19 654.49,238.05 655.78,239.27 657.08,238.67 658.38,243.71 659.68,245.98 660.97,240.13 662.27,245.85 663.57,249.85 664.86,241.13 666.16,234.38 667.46,230.25 668.76,228.61 670.05,228.24 671.35,232.00 672.65,230.92 673.95,234.09 675.24,231.83 676.54,233.95 677.84,232.90 679.14,231.48 680.43,227.84 681.73,229.65 683.03,228.12 684.32,233.47 685.62,228.23 686.92,229.28 688.22,228.96 689.51,233.26 690.81,233.53 692.11,231.35 693.41,229.39 694.70,228.63 696.00,227.53 697.30,232.93 698.59,229.25 699.89,229.83 701.19,231.93 702.49,231.89 703.78,228.94 705.08,230.42 706.38,232.21 707.68,233.45 708.97,227.83 710.27,230.74 711.57,228.04 712.86,227.88 714.16,229.87 715.46,227.50 716.76,232.74 718.05,231.85 719.35,232.64 720.65,232.17 721.95,230.33 723.24,232.06 724.54,234.12 725.84,229.24 727.14,228.03 728.43,227.71 729.73,229.20 731.03,234.00 732.32,228.62 733.62,228.50 734.92,232.69 736.22,232.67 737.51,231.33 738.81,233.97 740.11,231.27 741.41,231.95 742.70,233.87 744.00,235.13 745.30,231.65 746.59,232.30 747.89,230.59 749.19,234.05 750.49,237.77 751.78,231.63 753.08,232.71 754.38,229.48 755.68,233.02 756.97,231.83 758.27,230.99 759.57,231.27 760.86,229.96 762.16,230.67 763.46,239.27 764.76,231.74 766.05,228.16 767.35,229.06 768.65,231.54 769.95,234.24 771.24,229.72 772.54,233.42 773.84,230.14 775.14,230.36 776.43,232.20 777.73,229.90 779.03,232.76 780.32,229.91 781.62,229.28 782.92,235.94 784.22,230.89 785.51,232.73 786.81,230.18 788.11,234.06 789.41,231.23 790.70,230.65 792.00,231.91 793.30,231.88 794.59,230.97 795.89,234.83 797.19,233.52 798.49,230.81 799.78,231.22 801.08,230.29 802.38,231.84 803.68,230.31 804.97,233.35 806.27,230.47 807.57,230.64 808.86,233.01 810.16,233.06 811.46,233.43 812.76,232.05 814.05,227.73 815.35,232.93 816.65,235.92 817.95,232.28 819.24,233.98 820.54,232.40 821.84,230.68 823.14,231.65 824.43,233.91 825.73,231.72 827.03,230.95 828.32,233.51 829.62,232.93 830.92,231.92 832.22,230.30 833.51,230.95 834.81,233.23 836.11,234.10 837.41,230.28 838.70,232.11 840.00,231.54 841.30,233.29 842.59,235.33 843.89,231.97 845.19,230.01 846.49,229.53 847.78,232.74 849.08,232.38 850.38,229.97 851.68,232.22 852.97,229.40 854.27,231.62 855.57,234.74 856.86,232.80 858.16,232.67 859.46,231.62 860.76,230.59 862.05,233.79 863.35,228.07 864.65,231.48 865.95,228.47 867.24,231.24 868.54,233.78 869.84,228.53 871.14,228.00 872.43,232.30 873.73,228.78 875.03,232.62 876.32,233.97 877.62,228.24 878.92,227.83 880.22,229.34 881.51,236.99 882.81,228.84 884.11,233.09 885.41,227.67 886.70,232.30 888.00,239.63 889.30,234.05 890.59,231.87 891.89,234.88 893.19,231.97 894.49,232.85 895.78,235.40 897.08,231.68 898.38,232.80 899.68,230.85 900.97,232.89 902.27,234.55 903.57,231.89 904.86,232.52 906.16,233.91 907.46,235.32 908.76,234.64 910.05,234.77 911.35,232.31 912.65,230.01 913.95,234.00 915.24,234.92 916.54,234.22 917.84,233.07 919.14,234.63 920.43,235.07 921.73,234.68 923.03,233.60 924.32,232.79 925.62,232.56 926.92,234.88 928.22,233.21 929.51,231.64 930.81,232.43 932.11,232.05 933.41,230.92 934.70,233.56 936.00,230.92 937.30,231.26 938.59,234.27 939.89,233.68 941.19,235.47 942.49,230.31 943.78,234.84 945.08,233.28 946.38,230.69 947.68,234.87 948.97,233.51 950.27,231.48 951.57,233.22 952.86,233.75 954.16,234.27 955.46,231.53 956.76,233.89 958.05,232.04 959.35,232.56 960.65,236.24 961.95,233.77 963.24,234.09 964.54,229.93 965.84,232.30 967.14,238.27 968.43,233.93 969.73,231.02 971.03,232.16 972.32,229.35 973.62,236.03 974.92,232.81 976.22,231.72 977.51,231.10 978.81,233.19 980.11,231.00 981.41,233.77 982.70,231.42 984.00,228.18 985.30,234.77 986.59,232.46 987.89,230.20 989.19,233.92 990.49,231.63 991.78,233.94 993.08,234.71 994.38,231.05 995.68,230.32 996.97,230.78 998.27,229.69 999.57,234.92 1000.86,234.11 1002.16,232.01 1003.46,233.10 1004.76,233.45 1006.05,232.54 1007.35,231.50 1008.65,230.08 1009.95,229.09 1011.24,232.28 1012.54,234.07 1013.84,231.33 1015.14,228.89 1016.43,233.91 1017.73,231.19 1019.03,232.74 1020.32,233.59 1021.62,231.25 1022.92,231.31 1024.22,235.03 1025.51,234.23 1026.81,233.15 1028.11,233.46 1029.41,235.12 1030.70,232.63 1032.00,232.71 1033.30,234.47 1034.59,231.15 1035.89,229.61 1037.19,232.21 1038.49,230.74 1039.78,231.15 1041.08,230.72 1042.38,232.98 1043.68,228.82 1044.97,233.02 1046.27,232.50 1047.57,231.81 1048.86,233.30 1050.16,230.91 1051.46,228.82 1052.76,230.17 1054.05,228.54 1055.35,232.66 1056.65,232.01 1057.95,229.37 1059.24,232.32 1060.54,231.93 1061.84,228.34 1063.14,228.68 1064.43,233.63 1065.73,232.34 1067.03,228.78 1068.32,229.63 1069.62,228.79 1070.92,231.92 1072.22,230.36 1073.51,228.25 1074.81,228.84 1076.11,230.08 1077.41,231.57 1078.70,234.02 1080.00,229.62 1081.30,232.71 1082.59,233.42 1083.89,234.37 1085.19,231.03 1086.49,232.69 1087.78,228.15 1089.08,231.60 1090.38,233.45 1091.68,231.84 1092.97,228.59 1094.27,230.73 1095.57,230.29 1096.86,228.96 1098.16,231.81 1099.46,230.19 1100.76,227.91 1102.05,231.07 1103.35,228.89 1104.65,233.61 1105.95,228.56 1107.24,233.01 1108.54,228.95 1109.84,227.72 1111.14,231.42 1112.43,228.54 1113.73,231.86 1115.03,230.43 1116.32,230.09 1117.62,229.97 1118.92,229.19 1120.22,231.44 1121.51,230.37 1122.81,228.23 1124.11,229.66 1125.41,228.41 1126.70,229.51 1128.00,230.87 1129.30,231.08 1130.59,234.31 1131.89,228.43 1133.19,241.05 1134.49,244.16 1135.78,246.45 1137.08,246.01 1138.38,245.25 1139.68,246.90 1140.97,247.79 1142.27,247.01 1143.57,250.21 1144.86,249.34 1146.16,250.21 1147.46,244.20 1148.76,241.64 1150.05,244.38 1151.35,246.60 1152.65,243.13 1153.95,244.61 1155.24,246.37 1156.54,248.97 1157.84,246.05 1159.14,246.34 1160.43,242.62 1161.73,246.70 1163.03,248.21 1164.32,245.79 1165.62,247.30 1166.92,244.59 1168.22,245.64 1169.51,248.49 1170.81,243.37 1172.11,247.39 1173.41,245.40 1174.70,242.66 1176.00,243.50 1177.30,243.87 1178.59,241.17 1179.89,242.94 1181.19,243.39 1182.49,241.56 1183.78,242.39 1185.08,240.95 1186.38,245.93 1187.68,243.50 1188.97,244.58 1190.27,241.68 1191.57,245.89 1192.86,239.39 1194.16,240.75 1195.46,237.98 1196.76,237.66 1198.05,238.25 1199.35,238.21 1200.65,242.09 1201.95,246.80 1203.24,241.28 1204.54,244.47 1205.84,246.22 1207.14,247.43 1208.43,248.05 1209.73,245.94 1211.03,241.82 1212.32,246.09 1213.62,242.08 1214.92,247.79 1216.22,244.82 1217.51,248.97 1218.81,245.81 1220.11,243.09 1221.41,242.81 1222.70,250.01 1224.00,250.10 1225.30,244.84 1226.59,242.65 1227.89,241.72 1229.19,241.38 1230.49,245.30 1231.78,243.12 1233.08,241.65 1234.38,243.36 1235.68,244.85 1236.97,243.08 1238.27,244.98 1239.57,249.19 1240.86,251.72 1242.16,244.54 1243.46,247.35 1244.76,245.12 1246.05,241.18 1247.35,243.93 1248.65,241.48 1249.95,241.09 1251.24,243.57 1252.54,245.61 1253.84,246.42 1255.14,247.33 1256.43,243.22 1257.73,241.30 1259.03,241.04 1260.32,240.74 1261.62,246.98 1262.92,239.31 1264.22,247.19 1265.51,249.85 1266.81,253.05 1268.11,241.54 1269.41,252.90 1270.70,242.49 1272.00,253.38 1273.30,254.22 1274.59,239.03 1275.89,252.16 1277.19,247.55 1278.49,248.63 1279.78,253.98 1281.08,250.34 1282.38,243.47 1283.68,242.44 1284.97,249.45 1286.27,250.67 1287.57,248.08 1288.86,245.10 1290.16,247.52 1291.46,247.66 1292.76,243.33 1294.05,248.09 1295.35,249.73 1296.65,246.72 1297.95,248.30 1299.24,243.20 1300.54,244.86 1301.84,253.49 1303.14,246.71 1304.43,244.59 1305.73,245.47 1307.03,242.45 1308.32,239.41 1309.62,244.65 1310.92,243.11 1312.22,242.33 1313.51,246.91 1314.81,244.58 1316.11,244.14 1317.41,254.32 1318.70,252.71 1320.00,255.09 1321.30,256.96 1322.59,253.72 1323.89,254.17 1325.19,253.43 1326.49,254.48 1327.78,256.68 1329.08,253.61 1330.38,253.60 1331.68,253.68 1332.97,254.01 1334.27,256.99 1335.57,253.74 1336.86,253.91 1338.16,253.37 1339.46,254.10 1340.76,256.89 1342.05,253.31 1343.35,253.76 1344.65,253.83 1345.95,253.98 1347.24,256.79 1348.54,254.11 1349.84,254.04 1351.14,253.89 1352.43,254.18 1353.73,257.34 1355.03,253.72 1356.32,253.60 1357.62,253.65 1358.92,254.00 1360.22,256.91 1361.51,253.84 1362.81,254.18 1364.11,253.42 1365.41,253.83 1366.70,259.77 1368.00,259.97 1368.00,260.03 1366.70,260.25 1365.41,266.04 1364.11,266.68 1362.81,265.83 1361.51,265.36 1360.22,263.40 1358.92,265.11 1357.62,265.66 1356.32,265.11 1355.03,265.42 1353.73,263.07 1352.43,265.98 1351.14,266.52 1349.84,265.87 1348.54,265.26 1347.24,262.97 1345.95,265.02 1344.65,265.61 1343.35,265.33 1342.05,265.32 1340.76,263.87 1339.46,266.10 1338.16,266.45 1336.86,265.57 1335.57,265.11 1334.27,262.81 1332.97,265.06 1331.68,265.47 1330.38,265.11 1329.08,265.54 1327.78,264.09 1326.49,266.34 1325.19,266.62 1323.89,265.73 1322.59,265.43 1321.30,263.33 1320.00,265.41 1318.70,267.29 1317.41,267.20 1316.11,274.75 1314.81,275.79 1313.51,273.11 1312.22,277.92 1310.92,275.52 1309.62,276.80 1308.32,279.09 1307.03,277.04 1305.73,275.70 1304.43,277.63 1303.14,273.58 1301.84,265.47 1300.54,278.75 1299.24,277.84 1297.95,271.67 1296.65,273.04 1295.35,270.29 1294.05,271.97 1292.76,276.58 1291.46,274.29 1290.16,272.17 1288.86,274.40 1287.57,274.18 1286.27,268.14 1284.97,268.47 1283.68,273.65 1282.38,277.82 1281.08,269.28 1279.78,266.40 1278.49,272.78 1277.19,272.86 1275.89,266.83 1274.59,277.64 1273.30,267.21 1272.00,265.91 1270.70,273.99 1269.41,270.35 1268.11,274.64 1266.81,267.95 1265.51,269.67 1264.22,271.43 1262.92,279.09 1261.62,271.52 1260.32,277.67 1259.03,274.62 1257.73,282.23 1256.43,279.07 1255.14,273.36 1253.84,272.49 1252.54,273.93 1251.24,273.57 1249.95,276.48 1248.65,279.17 1247.35,274.88 1246.05,277.61 1244.76,276.71 1243.46,271.22 1242.16,277.63 1240.86,268.25 1239.57,272.13 1238.27,271.15 1236.97,272.74 1235.68,277.55 1234.38,274.18 1233.08,280.30 1231.78,278.72 1230.49,283.20 1229.19,277.06 1227.89,277.57 1226.59,274.86 1225.30,276.79 1224.00,270.42 1222.70,271.63 1221.41,276.53 1220.11,272.42 1218.81,276.75 1217.51,270.91 1216.22,277.08 1214.92,270.50 1213.62,275.57 1212.32,275.10 1211.03,273.43 1209.73,271.15 1208.43,273.98 1207.14,272.18 1205.84,275.65 1204.54,275.69 1203.24,274.78 1201.95,275.38 1200.65,277.15 1199.35,281.30 1198.05,280.42 1196.76,279.26 1195.46,279.13 1194.16,278.34 1192.86,281.96 1191.57,276.64 1190.27,279.05 1188.97,278.26 1187.68,274.27 1186.38,275.46 1185.08,280.77 1183.78,277.73 1182.49,278.52 1181.19,278.30 1179.89,280.64 1178.59,275.68 1177.30,274.50 1176.00,275.82 1174.70,275.91 1173.41,276.02 1172.11,273.83 1170.81,276.50 1169.51,273.19 1168.22,276.67 1166.92,273.46 1165.62,271.69 1164.32,275.00 1163.03,272.33 1161.73,272.84 1160.43,272.79 1159.14,270.92 1157.84,272.20 1156.54,269.88 1155.24,271.99 1153.95,275.16 1152.65,272.73 1151.35,273.27 1150.05,275.14 1148.76,277.87 1147.46,277.18 1146.16,271.84 1144.86,270.50 1143.57,270.47 1142.27,273.06 1140.97,273.41 1139.68,273.12 1138.38,272.18 1137.08,274.48 1135.78,276.53 1134.49,275.05 1133.19,277.40 1131.89,289.05 1130.59,285.30 1129.30,287.88 1128.00,290.70 1126.70,291.08 1125.41,289.70 1124.11,284.39 1122.81,292.39 1121.51,290.40 1120.22,292.28 1118.92,288.59 1117.62,289.55 1116.32,290.54 1115.03,290.24 1113.73,291.23 1112.43,290.06 1111.14,283.59 1109.84,288.06 1108.54,288.04 1107.24,290.78 1105.95,289.06 1104.65,283.65 1103.35,289.05 1102.05,290.34 1100.76,289.44 1099.46,285.97 1098.16,292.11 1096.86,290.56 1095.57,289.43 1094.27,290.32 1092.97,291.36 1091.68,289.12 1090.38,287.31 1089.08,291.08 1087.78,290.71 1086.49,288.54 1085.19,288.22 1083.89,290.44 1082.59,290.24 1081.30,291.02 1080.00,290.20 1078.70,288.03 1077.41,287.37 1076.11,290.02 1074.81,289.57 1073.51,289.74 1072.22,285.42 1070.92,291.14 1069.62,290.19 1068.32,287.44 1067.03,290.96 1065.73,288.88 1064.43,290.08 1063.14,290.70 1061.84,290.05 1060.54,289.21 1059.24,290.49 1057.95,286.94 1056.65,289.11 1055.35,288.93 1054.05,289.06 1052.76,288.88 1051.46,287.57 1050.16,289.62 1048.86,290.21 1047.57,290.69 1046.27,287.31 1044.97,289.38 1043.68,289.18 1042.38,286.95 1041.08,288.46 1039.78,288.02 1038.49,286.14 1037.19,290.69 1035.89,289.43 1034.59,288.37 1033.30,284.54 1032.00,286.83 1030.70,288.42 1029.41,290.91 1028.11,287.63 1026.81,286.53 1025.51,285.47 1024.22,287.34 1022.92,288.47 1021.62,285.60 1020.32,288.17 1019.03,285.88 1017.73,286.42 1016.43,286.20 1015.14,286.09 1013.84,288.50 1012.54,286.53 1011.24,287.43 1009.95,290.46 1008.65,289.77 1007.35,288.44 1006.05,283.43 1004.76,287.79 1003.46,289.85 1002.16,286.83 1000.86,288.66 999.57,284.12 998.27,290.33 996.97,286.93 995.68,288.24 994.38,286.11 993.08,283.27 991.78,287.15 990.49,286.38 989.19,288.41 987.89,287.39 986.59,285.28 985.30,289.39 984.00,289.97 982.70,286.91 981.41,286.65 980.11,287.08 978.81,287.72 977.51,290.42 976.22,286.30 974.92,289.32 973.62,282.86 972.32,289.10 971.03,288.37 969.73,289.65 968.43,287.07 967.14,287.43 965.84,288.15 964.54,289.59 963.24,286.80 961.95,288.03 960.65,283.40 959.35,286.20 958.05,289.46 956.76,285.84 955.46,285.33 954.16,285.24 952.86,289.01 951.57,288.84 950.27,286.02 948.97,286.78 947.68,287.45 946.38,288.47 945.08,290.03 943.78,285.10 942.49,288.06 941.19,285.54 939.89,284.67 938.59,290.56 937.30,285.03 936.00,287.44 934.70,286.21 933.41,288.88 932.11,288.15 930.81,286.73 929.51,286.03 928.22,285.30 926.92,288.12 925.62,290.53 924.32,285.49 923.03,287.22 921.73,284.98 920.43,289.46 919.14,289.34 917.84,287.15 916.54,286.27 915.24,286.30 913.95,286.80 912.65,289.99 911.35,285.26 910.05,288.55 908.76,284.69 907.46,288.66 906.16,290.42 904.86,288.55 903.57,285.35 902.27,289.23 900.97,287.86 899.68,290.72 898.38,286.29 897.08,286.63 895.78,289.16 894.49,284.12 893.19,288.68 891.89,287.50 890.59,287.04 889.30,289.03 888.00,281.07 886.70,290.09 885.41,291.91 884.11,289.11 882.81,287.71 881.51,284.19 880.22,288.90 878.92,289.03 877.62,291.84 876.32,290.42 875.03,288.16 873.73,289.08 872.43,288.92 871.14,292.28 869.84,289.44 868.54,283.26 867.24,287.73 865.95,289.50 864.65,287.80 863.35,291.10 862.05,291.39 860.76,289.24 859.46,290.44 858.16,287.73 856.86,289.43 855.57,287.58 854.27,287.71 852.97,289.13 851.68,287.70 850.38,288.99 849.08,284.19 847.78,289.16 846.49,287.45 845.19,290.56 843.89,290.36 842.59,284.69 841.30,287.86 840.00,289.80 838.70,288.65 837.41,289.80 836.11,285.65 834.81,290.16 833.51,290.22 832.22,286.53 830.92,290.99 829.62,287.34 828.32,288.62 827.03,288.50 825.73,287.70 824.43,289.97 823.14,292.25 821.84,289.89 820.54,288.05 819.24,286.01 817.95,287.57 816.65,284.05 815.35,289.58 814.05,290.22 812.76,289.19 811.46,290.48 810.16,285.48 808.86,288.40 807.57,288.37 806.27,290.20 804.97,287.93 803.68,287.61 802.38,287.32 801.08,285.13 799.78,291.00 798.49,289.35 797.19,289.35 795.89,286.68 794.59,286.65 793.30,287.29 792.00,288.74 790.70,288.74 789.41,290.21 788.11,287.21 786.81,288.53 785.51,289.53 784.22,287.43 782.92,289.98 781.62,289.74 780.32,289.50 779.03,289.52 777.73,286.81 776.43,288.96 775.14,291.41 773.84,290.30 772.54,288.55 771.24,287.20 769.95,284.99 768.65,288.97 767.35,290.19 766.05,291.29 764.76,290.45 763.46,281.39 762.16,287.98 760.86,291.94 759.57,289.29 758.27,290.03 756.97,280.69 755.68,290.56 754.38,286.32 753.08,291.19 751.78,292.47 750.49,281.67 749.19,288.66 747.89,288.19 746.59,288.65 745.30,290.45 744.00,287.92 742.70,286.52 741.41,288.26 740.11,288.84 738.81,285.62 737.51,288.34 736.22,286.70 734.92,289.09 733.62,289.89 732.32,292.61 731.03,291.78 729.73,290.61 728.43,290.40 727.14,290.94 725.84,291.23 724.54,290.84 723.24,286.74 721.95,287.01 720.65,289.25 719.35,290.72 718.05,290.51 716.76,287.24 715.46,292.33 714.16,287.48 712.86,290.65 711.57,292.18 710.27,288.74 708.97,292.37 707.68,287.40 706.38,291.01 705.08,290.76 703.78,290.93 702.49,287.14 701.19,289.45 699.89,291.45 698.59,287.71 697.30,286.24 696.00,290.63 694.70,291.59 693.41,291.99 692.11,289.49 690.81,287.09 689.51,290.73 688.22,289.68 686.92,290.63 685.62,291.89 684.32,286.29 683.03,291.76 681.73,289.93 680.43,290.70 679.14,287.44 677.84,285.08 676.54,292.20 675.24,288.19 673.95,290.57 672.65,285.59 671.35,286.87 670.05,290.39 668.76,289.28 667.46,290.65 666.16,284.04 664.86,284.14 663.57,274.52 662.27,272.73 660.97,276.76 659.68,278.04 658.38,276.19 657.08,275.58 655.78,280.17 654.49,279.55 653.19,282.53 651.89,279.22 650.59,278.33 649.30,274.19 648.00,272.13 646.70,274.22 645.41,277.72 644.11,278.13 642.81,278.95 641.51,275.68 640.22,278.28 638.92,280.12 637.62,281.22 636.32,281.48 635.03,276.71 633.73,277.57 632.43,280.24 631.14,276.22 629.84,276.64 628.54,279.00 627.24,282.42 625.95,282.45 624.65,282.12 623.35,279.29 622.05,276.63 620.76,278.44 619.46,280.84 618.16,278.49 616.86,277.61 615.57,276.70 614.27,280.09 612.97,277.18 611.68,278.99 610.38,280.50 609.08,277.10 607.78,275.73 606.49,275.08 605.19,277.61 603.89,281.99 602.59,277.47 601.30,277.71 600.00,274.47 598.70,276.62 597.41,277.72 596.11,281.05 594.81,276.64 593.51,275.79 592.22,278.01 590.92,275.81 589.62,277.93 588.32,277.39 587.03,278.38 585.73,278.13 584.43,275.24 583.14,275.24 581.84,278.23 580.54,277.88 579.24,276.66 577.95,276.40 576.65,279.10 575.35,277.90 574.05,278.18 572.76,273.44 571.46,276.68 570.16,280.73 568.86,276.22 567.57,285.33 566.27,276.98 564.97,281.04 563.68,277.42 562.38,283.34 561.08,277.55 559.78,281.68 558.49,274.42 557.19,279.17 555.89,282.38 554.59,280.89 553.30,281.52 552.00,280.42 550.70,278.56 549.41,280.86 548.11,278.09 546.81,280.41 545.51,275.48 544.22,276.13 542.92,279.67 541.62,282.21 540.32,280.42 539.03,286.17 537.73,281.92 536.43,288.84 535.14,289.95 533.84,286.38 532.54,286.85 531.24,290.96 529.95,287.81 528.65,289.53 527.35,286.36 526.05,291.48 524.76,292.14 523.46,291.55 522.16,291.41 520.86,288.11 519.57,288.51 518.27,290.01 516.97,290.16 515.68,290.41 514.38,286.29 513.08,288.03 511.78,292.22 510.49,287.05 509.19,291.74 507.89,285.72 506.59,288.44 505.30,290.71 504.00,288.71 502.70,288.15 501.41,285.36 500.11,288.34 498.81,289.36 497.51,287.35 496.22,288.33 494.92,286.38 493.62,290.33 492.32,291.44 491.03,290.61 489.73,290.83 488.43,291.58 487.14,288.47 485.84,291.82 484.54,288.67 483.24,289.16 481.95,290.77 480.65,291.62 479.35,291.10 478.05,290.80 476.76,289.27 475.46,286.10 474.16,286.35 472.86,292.73 471.57,289.47 470.27,291.68 468.97,286.39 467.68,291.61 466.38,287.23 465.08,290.09 463.78,288.01 462.49,286.54 461.19,286.76 459.89,288.94 458.59,286.17 457.30,287.59 456.00,285.40 454.70,287.92 453.41,288.00 452.11,286.36 450.81,289.11 449.51,288.34 448.22,288.63 446.92,288.14 445.62,290.13 444.32,289.03 443.03,285.14 441.73,290.58 440.43,289.11 439.14,286.57 437.84,287.23 436.54,284.81 435.24,289.35 433.95,287.04 432.65,288.55 431.35,286.29 430.05,284.26 428.76,288.17 427.46,288.69 426.16,286.39 424.86,285.52 423.57,286.75 422.27,289.23 420.97,287.01 419.68,289.84 418.38,287.09 417.08,289.74 415.78,287.09 414.49,288.34 413.19,287.57 411.89,285.98 410.59,286.43 409.30,287.90 408.00,288.21 406.70,291.07 405.41,289.61 404.11,286.65 402.81,286.08 401.51,288.33 400.22,287.76 398.92,287.12 397.62,288.88 396.32,289.20 395.03,289.35 393.73,288.62 392.43,286.72 391.14,289.13 389.84,287.59 388.54,288.70 387.24,286.73 385.95,284.58 384.65,290.50 383.35,287.77 382.05,288.87 380.76,289.86 379.46,289.39 378.16,287.96 376.86,290.07 375.57,288.76 374.27,288.87 372.97,288.01 371.68,288.94 370.38,288.67 369.08,288.13 367.78,288.28 366.49,287.39 365.19,289.33 363.89,288.57 362.59,289.36 361.30,288.03 360.00,290.29 358.70,288.85 357.41,285.82 356.11,289.04 354.81,289.87 353.51,287.81 352.22,288.41 350.92,286.81 349.62,286.80 348.32,288.75 347.03,288.74 345.73,289.56 344.43,290.94 343.14,286.99 341.84,289.68 340.54,288.31 339.24,289.35 337.95,289.10 336.65,288.29 335.35,288.87 334.05,288.74 332.76,287.52 331.46,285.26 330.16,288.81 328.86,279.29 327.57,288.92 326.27,290.29 324.97,290.33 323.68,291.71 322.38,290.79 321.08,287.72 319.78,290.05 318.49,289.23 317.19,290.14 315.89,287.72 314.59,287.60 313.30,291.45 312.00,287.12 310.70,288.41 309.41,288.17 308.11,291.02 306.81,289.82 305.51,285.62 304.22,290.31 302.92,291.18 301.62,287.10 300.32,289.52 299.03,287.74 297.73,289.14 296.43,286.92 295.14,289.98 293.84,290.87 292.54,288.46 291.24,283.67 289.95,290.40 288.65,286.71 287.35,290.18 286.05,292.08 284.76,288.22 283.46,287.27 282.16,278.83 280.86,280.15 279.57,290.09 278.27,283.81 276.97,288.32 275.68,288.56 274.38,289.48 273.08,291.30 271.78,286.55 270.49,288.28 269.19,289.57 267.89,290.07 266.59,288.00 265.30,285.58 264.00,285.66 262.70,287.69 261.41,286.71 260.11,290.70 258.81,286.77 257.51,285.69 256.22,289.54 254.92,289.67 253.62,289.86 252.32,286.60 251.03,286.51 249.73,289.59 248.43,290.60 247.14,290.17 245.84,285.42 244.54,284.93 243.24,286.48 241.95,290.54 240.65,290.24 239.35,287.53 238.05,290.74 236.76,287.20 235.46,288.31 234.16,282.68 232.86,281.03 231.57,287.34 230.27,280.17 228.97,281.40 227.68,276.75 226.38,281.03 225.08,283.17 223.78,290.43 222.49,290.90 221.19,290.91 219.89,288.47 218.59,288.02 217.30,288.68 216.00,291.48 214.70,287.82 213.41,285.54 212.11,289.14 210.81,291.81 209.51,289.43 208.22,289.53 206.92,286.95 205.62,290.39 204.32,285.98 203.03,289.37 201.73,289.92 200.43,285.57 199.14,288.70 197.84,290.31 196.54,291.19 195.24,285.79 193.95,284.77 192.65,291.31 191.35,286.72 190.05,290.55 188.76,287.24 187.46,285.58 186.16,290.31 184.86,289.94 183.57,286.51 182.27,290.67 180.97,289.59 179.68,283.27 178.38,288.87 177.08,290.26 175.78,289.20 174.49,287.07 173.19,288.62 171.89,289.04 170.59,290.27 169.30,291.22 168.00,290.00 166.70,288.59 165.41,288.95 164.11,291.60 162.81,289.32 161.51,287.21 160.22,282.25 158.92,288.51 157.62,288.60 156.32,291.01 155.03,288.16 153.73,288.42 152.43,289.09 151.14,290.47 149.84,289.34 148.54,288.17 147.24,283.70 145.95,290.33 144.65,287.11 143.35,286.11 142.05,285.41 140.76,282.51 139.46,289.35 138.16,291.07 136.86,290.19 135.57,290.52 134.27,285.03 132.97,286.18 131.68,287.79 130.38,286.79 129.08,285.89 127.78,282.13 126.49,291.60 125.19,287.47 123.89,290.39 122.59,290.64 121.30,284.58 120.00,287.74 118.70,291.90 117.41,288.21 116.11,291.64 114.81,284.57 113.51,289.76 112.22,287.22 110.92,290.73 109.62,292.02 108.32,285.55 107.03,286.42 105.73,287.41 104.43,287.56 103.14,287.75 101.84,289.45 100.54,289.18 99.24,288.67 97.95,289.10 96.65,287.76 95.35,284.23 94.05,286.16 92.76,289.54 91.46,291.10 90.16,291.97 88.86,288.67 87.57,280.46 86.27,291.93 84.97,291.69 83.68,287.65 82.38,291.54 81.08,279.64 79.78,288.54 78.49,291.17 77.19,291.38 75.89,288.20 74.59,279.83 73.30,290.30 72.00,290.50" fill="#0f766e" fill-opacity="0.9"/><line x1="72.0" y1="260.0" x2="1368.0" y2="260.0" stroke="#d4c9b8" stroke-opacity="0.8"/><text x="72.0" y="316.0" font-size="12" fill="#5c6773">0:00</text><text x="1326.0" y="316.0" font-size="12" fill="#5c6773">6:22</text><text x="1148.0" y="246.0" font-size="12" font-weight="700" fill="#111827">mix-out window 6:12–6:22</text><text x="72.0" y="314.0" font-size="18" font-weight="700" fill="#1f2933">AIROD - Rave Cycle (Original Mix)</text><text x="72.0" y="334.0" font-size="13" fill="#5c6773">mix-in window 0:00–0:09</text><rect x="72.0" y="328.0" width="1296.0" height="72" rx="18" fill="#c2410c" fill-opacity="0.07" stroke="#d4c9b8" stroke-opacity="0.55"/><rect x="72.0" y="330.0" width="35.5" height="68" rx="16" fill="#fb923c" fill-opacity="0.22" stroke="#fb923c" stroke-opacity="0.7"/><polygon points="72.00,337.81 73.30,349.85 74.59,350.96 75.89,351.64 77.19,351.02 78.49,351.85 79.78,337.17 81.08,350.49 82.38,352.24 83.68,351.11 84.97,351.32 86.27,351.69 87.57,337.31 88.86,351.29 90.16,352.23 91.46,352.66 92.76,350.37 94.05,337.83 95.35,351.18 96.65,351.32 97.95,349.85 99.24,349.51 100.54,350.84 101.84,337.72 103.14,351.51 104.43,350.21 105.73,347.65 107.03,351.57 108.32,348.79 109.62,336.93 110.92,344.86 112.22,350.16 113.51,347.63 114.81,348.05 116.11,340.49 117.41,348.98 118.70,345.18 120.00,347.34 121.30,347.83 122.59,348.21 123.89,337.67 125.19,347.50 126.49,349.11 127.78,348.43 129.08,349.44 130.38,335.21 131.68,348.74 132.97,346.76 134.27,348.68 135.57,345.80 136.86,345.67 138.16,338.70 139.46,349.02 140.76,349.33 142.05,349.98 143.35,349.09 144.65,346.40 145.95,336.91 147.24,348.84 148.54,350.93 149.84,347.24 151.14,347.14 152.43,338.31 153.73,347.20 155.03,347.06 156.32,346.25 157.62,348.21 158.92,345.58 160.22,338.50 161.51,349.00 162.81,344.20 164.11,346.98 165.41,348.61 166.70,344.10 168.00,333.91 169.30,346.03 170.59,347.17 171.89,347.08 173.19,348.76 174.49,342.33 175.78,348.94 177.08,346.66 178.38,345.71 179.68,347.61 180.97,346.23 182.27,338.32 183.57,344.97 184.86,346.69 186.16,348.93 187.46,342.87 188.76,342.19 190.05,348.39 191.35,343.45 192.65,346.08 193.95,345.04 195.24,343.69 196.54,336.46 197.84,346.06 199.14,349.03 200.43,348.44 201.73,344.95 203.03,345.75 204.32,336.91 205.62,348.75 206.92,347.48 208.22,350.63 209.51,347.45 210.81,341.82 212.11,344.94 213.41,342.78 214.70,347.48 216.00,349.60 217.30,345.98 218.59,337.00 219.89,345.49 221.19,346.60 222.49,346.51 223.78,341.11 225.08,338.13 226.38,343.97 227.68,344.76 228.97,346.99 230.27,349.61 231.57,347.00 232.86,340.60 234.16,346.90 235.46,348.60 236.76,346.81 238.05,342.12 239.35,346.83 240.65,343.13 241.95,346.91 243.24,349.62 244.54,348.38 245.84,342.53 247.14,334.87 248.43,346.08 249.73,345.38 251.03,346.68 252.32,347.45 253.62,344.11 254.92,339.48 256.22,345.79 257.51,348.12 258.81,344.41 260.11,348.12 261.41,347.07 262.70,338.44 264.00,346.16 265.30,347.52 266.59,345.64 267.89,344.83 269.19,339.58 270.49,347.82 271.78,347.55 273.08,347.73 274.38,347.05 275.68,344.54 276.97,345.76 278.27,345.72 279.57,345.45 280.86,350.65 282.16,346.35 283.46,336.91 284.76,345.84 286.05,346.53 287.35,345.53 288.65,343.99 289.95,347.87 291.24,341.95 292.54,348.25 293.84,346.69 295.14,348.40 296.43,347.40 297.73,347.01 299.03,341.34 300.32,347.34 301.62,349.66 302.92,349.83 304.22,350.15 305.51,333.08 306.81,333.67 308.11,333.57 309.41,332.75 310.70,333.14 312.00,334.50 313.30,333.28 314.59,333.12 315.89,336.41 317.19,333.68 318.49,333.02 319.78,333.39 321.08,334.68 322.38,333.20 323.68,333.78 324.97,333.73 326.27,333.31 327.57,333.05 328.86,333.69 330.16,333.12 331.46,334.44 332.76,333.11 334.05,335.68 335.35,332.97 336.65,334.20 337.95,333.58 339.24,334.74 340.54,333.68 341.84,333.06 343.14,337.01 344.43,333.09 345.73,333.70 347.03,334.18 348.32,335.13 349.62,334.11 350.92,333.54 352.22,333.87 353.51,334.86 354.81,333.27 356.11,334.27 357.41,333.72 358.70,333.61 360.00,332.52 361.30,335.74 362.59,333.35 363.89,333.04 365.19,333.45 366.49,334.95 367.78,334.00 369.08,334.38 370.38,334.72 371.68,334.21 372.97,334.43 374.27,333.55 375.57,334.74 376.86,333.21 378.16,333.09 379.46,333.53 380.76,334.10 382.05,333.51 383.35,333.07 384.65,334.18 385.95,333.72 387.24,333.33 388.54,337.40 389.84,333.63 391.14,333.51 392.43,333.34 393.73,333.28 395.03,333.15 396.32,333.10 397.62,335.16 398.92,333.73 400.22,333.07 401.51,333.92 402.81,333.66 404.11,332.46 405.41,334.27 406.70,334.03 408.00,333.19 409.30,333.24 410.59,333.06 411.89,333.21 413.19,333.53 414.49,333.37 415.78,333.78 417.08,333.51 418.38,333.50 419.68,333.10 420.97,334.31 422.27,333.21 423.57,333.51 424.86,333.56 426.16,333.63 427.46,333.06 428.76,333.94 430.05,333.26 431.35,333.26 432.65,333.29 433.95,334.70 435.24,333.48 436.54,333.81 437.84,337.13 439.14,333.67 440.43,333.15 441.73,333.82 443.03,334.03 444.32,333.32 445.62,333.04 446.92,333.67 448.22,332.92 449.51,333.11 450.81,333.05 452.11,333.49 453.41,333.20 454.70,333.37 456.00,335.43 457.30,333.78 458.59,333.01 459.89,333.28 461.19,333.31 462.49,333.62 463.78,335.33 465.08,334.53 466.38,333.46 467.68,336.17 468.97,333.63 470.27,334.30 471.57,333.08 472.86,333.43 474.16,334.03 475.46,333.79 476.76,333.56 478.05,334.68 479.35,333.19 480.65,334.37 481.95,342.20 483.24,344.46 484.54,344.49 485.84,345.35 487.14,339.47 488.43,337.52 489.73,347.83 491.03,343.78 492.32,343.85 493.62,346.87 494.92,342.24 496.22,343.06 497.51,342.54 498.81,343.10 500.11,347.54 501.41,345.58 502.70,334.34 504.00,346.20 505.30,341.29 506.59,345.74 507.89,343.13 509.19,345.81 510.49,336.62 511.78,341.76 513.08,346.12 514.38,347.99 515.68,341.44 516.97,336.29 518.27,342.32 519.57,345.65 520.86,344.29 522.16,344.68 523.46,345.09 524.76,344.25 526.05,342.70 527.35,347.17 528.65,345.69 529.95,344.31 531.24,343.62 532.54,336.43 533.84,340.25 535.14,342.66 536.43,344.26 537.73,343.55 539.03,344.91 540.32,345.72 541.62,343.80 542.92,346.50 544.22,349.37 545.51,346.08 546.81,339.72 548.11,346.92 549.41,347.84 550.70,349.73 552.00,351.14 553.30,347.02 554.59,347.66 555.89,345.80 557.19,344.16 558.49,344.50 559.78,344.46 561.08,346.46 562.38,343.81 563.68,344.67 564.97,344.60 566.27,341.89 567.57,342.22 568.86,340.84 570.16,341.21 571.46,335.49 572.76,337.74 574.05,344.68 575.35,344.09 576.65,336.42 577.95,344.57 579.24,345.23 580.54,338.67 581.84,341.97 583.14,340.59 584.43,336.58 585.73,341.50 587.03,346.97 588.32,340.75 589.62,343.28 590.92,345.90 592.22,344.00 593.51,345.06 594.81,339.98 596.11,343.96 597.41,342.29 598.70,343.70 600.00,342.37 601.30,349.67 602.59,333.88 603.89,342.19 605.19,344.47 606.49,343.02 607.78,342.87 609.08,345.22 610.38,335.85 611.68,342.30 612.97,339.25 614.27,344.48 615.57,345.53 616.86,345.52 618.16,344.09 619.46,341.94 620.76,344.20 622.05,342.45 623.35,345.89 624.65,341.24 625.95,343.92 627.24,346.54 628.54,337.67 629.84,346.04 631.14,343.00 632.43,348.68 633.73,349.90 635.03,335.87 636.32,340.23 637.62,345.47 638.92,341.14 640.22,344.31 641.51,352.84 642.81,353.15 644.11,353.75 645.41,354.08 646.70,355.66 648.00,357.35 649.30,356.34 650.59,357.31 651.89,356.26 653.19,356.65 654.49,356.45 655.78,333.86 657.08,336.24 658.38,339.19 659.68,337.05 660.97,336.80 662.27,335.72 663.57,333.44 664.86,336.67 666.16,336.14 667.46,336.87 668.76,335.65 670.05,333.54 671.35,335.62 672.65,337.87 673.95,337.37 675.24,334.06 676.54,334.65 677.84,332.94 679.14,336.08 680.43,336.36 681.73,337.41 683.03,334.56 684.32,333.21 685.62,333.37 686.92,334.01 688.22,333.36 689.51,334.07 690.81,333.44 692.11,333.16 693.41,333.28 694.70,333.12 696.00,333.36 697.30,333.15 698.59,333.61 699.89,333.30 701.19,333.67 702.49,334.41 703.78,335.21 705.08,333.39 706.38,333.47 707.68,335.27 708.97,333.38 710.27,333.23 711.57,332.03 712.86,333.87 714.16,333.53 715.46,332.94 716.76,336.42 718.05,333.31 719.35,333.60 720.65,333.84 721.95,333.48 723.24,333.23 724.54,333.12 725.84,334.35 727.14,333.18 728.43,333.80 729.73,333.54 731.03,334.21 732.32,333.22 733.62,333.41 734.92,335.75 736.22,333.59 737.51,333.47 738.81,333.45 740.11,334.05 741.41,333.38 742.70,333.56 744.00,333.83 745.30,333.12 746.59,333.39 747.89,333.36 749.19,333.27 750.49,333.68 751.78,333.09 753.08,335.03 754.38,332.94 755.68,333.12 756.97,333.15 758.27,336.07 759.57,345.07 760.86,346.17 762.16,347.83 763.46,348.75 764.76,334.65 766.05,346.73 767.35,346.42 768.65,346.89 769.95,343.28 771.24,347.24 772.54,333.67 773.84,333.79 775.14,335.45 776.43,334.00 777.73,333.43 779.03,333.13 780.32,333.88 781.62,333.75 782.92,333.31 784.22,335.55 785.51,333.92 786.81,333.83 788.11,334.07 789.41,334.02 790.70,334.35 792.00,333.80 793.30,335.70 794.59,334.54 795.89,334.05 797.19,333.07 798.49,335.76 799.78,334.39 801.08,333.39 802.38,335.51 803.68,334.16 804.97,333.41 806.27,332.79 807.57,333.92 808.86,333.75 810.16,333.54 811.46,336.47 812.76,333.44 814.05,333.86 815.35,334.60 816.65,334.23 817.95,334.17 819.24,333.78 820.54,336.73 821.84,333.18 823.14,333.78 824.43,334.26 825.73,334.49 827.03,331.99 828.32,334.37 829.62,335.15 830.92,333.60 832.22,334.18 833.51,333.83 834.81,333.97 836.11,333.75 837.41,333.72 838.70,333.55 840.00,333.86 841.30,333.63 842.59,333.50 843.89,332.63 845.19,333.76 846.49,334.27 847.78,334.17 849.08,334.28 850.38,333.53 851.68,333.34 852.97,333.53 854.27,332.89 855.57,333.85 856.86,334.37 858.16,333.39 859.46,333.12 860.76,335.46 862.05,333.94 863.35,333.41 864.65,335.21 865.95,334.03 867.24,333.64 868.54,334.29 869.84,334.47 871.14,333.95 872.43,333.47 873.73,333.68 875.03,334.48 876.32,333.15 877.62,332.32 878.92,337.94 880.22,333.90 881.51,335.91 882.81,356.92 884.11,356.44 885.41,355.25 886.70,355.85 888.00,357.61 889.30,333.64 890.59,334.18 891.89,333.45 893.19,333.79 894.49,333.38 895.78,333.23 897.08,336.59 898.38,332.82 899.68,333.23 900.97,332.59 902.27,333.66 903.57,335.01 904.86,333.96 906.16,334.34 907.46,333.49 908.76,334.03 910.05,334.87 911.35,334.59 912.65,333.63 913.95,333.35 915.24,333.39 916.54,333.20 917.84,333.59 919.14,336.30 920.43,333.39 921.73,333.07 923.03,333.00 924.32,334.34 925.62,333.46 926.92,333.15 928.22,332.77 929.51,333.26 930.81,333.04 932.11,335.01 933.41,335.02 934.70,333.95 936.00,332.74 937.30,334.31 938.59,334.07 939.89,334.76 941.19,333.32 942.49,337.25 943.78,333.52 945.08,333.01 946.38,333.98 947.68,333.56 948.97,334.41 950.27,333.66 951.57,334.12 952.86,332.69 954.16,333.26 955.46,334.23 956.76,333.98 958.05,333.80 959.35,333.41 960.65,333.94 961.95,333.67 963.24,333.66 964.54,333.85 965.84,332.95 967.14,333.25 968.43,334.35 969.73,334.13 971.03,333.87 972.32,331.27 973.62,335.41 974.92,333.03 976.22,334.21 977.51,333.73 978.81,334.04 980.11,332.84 981.41,334.16 982.70,334.90 984.00,333.66 985.30,332.97 986.59,333.67 987.89,334.59 989.19,333.09 990.49,333.66 991.78,335.88 993.08,333.34 994.38,333.68 995.68,333.47 996.97,334.20 998.27,334.18 999.57,332.25 1000.86,333.40 1002.16,344.52 1003.46,356.88 1004.76,337.08 1006.05,334.76 1007.35,336.65 1008.65,334.54 1009.95,336.07 1011.24,336.35 1012.54,334.80 1013.84,336.66 1015.14,334.74 1016.43,335.37 1017.73,335.51 1019.03,337.71 1020.32,336.59 1021.62,333.11 1022.92,334.66 1024.22,337.55 1025.51,334.36 1026.81,335.66 1028.11,336.30 1029.41,336.48 1030.70,336.01 1032.00,337.60 1033.30,335.74 1034.59,336.44 1035.89,334.82 1037.19,337.19 1038.49,335.20 1039.78,336.73 1041.08,338.29 1042.38,334.92 1043.68,335.43 1044.97,334.47 1046.27,334.63 1047.57,335.56 1048.86,334.89 1050.16,338.09 1051.46,334.85 1052.76,336.68 1054.05,337.80 1055.35,334.70 1056.65,336.48 1057.95,337.39 1059.24,336.53 1060.54,345.10 1061.84,357.10 1063.14,333.36 1064.43,333.24 1065.73,333.61 1067.03,333.32 1068.32,336.18 1069.62,333.73 1070.92,333.62 1072.22,335.33 1073.51,334.04 1074.81,333.20 1076.11,334.16 1077.41,334.15 1078.70,333.68 1080.00,333.84 1081.30,335.74 1082.59,334.36 1083.89,333.56 1085.19,335.42 1086.49,333.29 1087.78,333.63 1089.08,334.00 1090.38,334.08 1091.68,334.26 1092.97,333.42 1094.27,333.87 1095.57,334.23 1096.86,333.56 1098.16,333.99 1099.46,334.71 1100.76,332.98 1102.05,334.18 1103.35,333.42 1104.65,334.40 1105.95,333.77 1107.24,333.00 1108.54,336.42 1109.84,333.87 1111.14,334.47 1112.43,335.67 1113.73,334.05 1115.03,333.31 1116.32,333.82 1117.62,336.85 1118.92,331.30 1120.22,334.18 1121.51,333.99 1122.81,333.45 1124.11,333.66 1125.41,333.28 1126.70,337.32 1128.00,333.65 1129.30,333.15 1130.59,334.48 1131.89,334.16 1133.19,333.01 1134.49,333.91 1135.78,334.45 1137.08,332.82 1138.38,334.13 1139.68,335.30 1140.97,333.29 1142.27,333.82 1143.57,334.76 1144.86,332.73 1146.16,333.74 1147.46,332.97 1148.76,335.06 1150.05,334.17 1151.35,333.02 1152.65,333.91 1153.95,334.18 1155.24,334.18 1156.54,333.98 1157.84,336.10 1159.14,332.96 1160.43,333.87 1161.73,333.19 1163.03,333.77 1164.32,333.80 1165.62,333.80 1166.92,334.90 1168.22,333.75 1169.51,334.23 1170.81,334.70 1172.11,334.13 1173.41,333.48 1174.70,334.00 1176.00,336.69 1177.30,333.70 1178.59,334.02 1179.89,335.85 1181.19,351.74 1182.49,351.90 1183.78,354.24 1185.08,352.97 1186.38,351.95 1187.68,354.90 1188.97,355.20 1190.27,353.77 1191.57,350.13 1192.86,354.65 1194.16,353.19 1195.46,353.22 1196.76,351.77 1198.05,352.19 1199.35,353.54 1200.65,351.29 1201.95,356.15 1203.24,352.90 1204.54,354.38 1205.84,353.92 1207.14,352.78 1208.43,354.14 1209.73,353.76 1211.03,354.00 1212.32,352.47 1213.62,355.25 1214.92,353.22 1216.22,354.32 1217.51,356.09 1218.81,356.79 1220.11,354.12 1221.41,353.11 1222.70,353.91 1224.00,353.77 1225.30,354.43 1226.59,350.47 1227.89,353.68 1229.19,353.32 1230.49,354.82 1231.78,355.10 1233.08,354.29 1234.38,354.10 1235.68,353.44 1236.97,354.27 1238.27,334.60 1239.57,334.59 1240.86,335.57 1242.16,337.03 1243.46,335.69 1244.76,335.13 1246.05,335.78 1247.35,336.43 1248.65,335.74 1249.95,336.10 1251.24,333.56 1252.54,335.25 1253.84,334.70 1255.14,335.87 1256.43,335.30 1257.73,335.59 1259.03,334.45 1260.32,337.50 1261.62,334.75 1262.92,335.98 1264.22,337.07 1265.51,335.02 1266.81,335.91 1268.11,334.30 1269.41,337.30 1270.70,336.25 1272.00,335.12 1273.30,333.65 1274.59,336.26 1275.89,336.26 1277.19,336.55 1278.49,335.82 1279.78,336.84 1281.08,334.96 1282.38,333.72 1283.68,336.24 1284.97,336.86 1286.27,336.67 1287.57,335.93 1288.86,335.21 1290.16,335.57 1291.46,336.06 1292.76,336.41 1294.05,335.89 1295.35,336.65 1296.65,334.44 1297.95,337.06 1299.24,334.79 1300.54,335.85 1301.84,333.33 1303.14,333.73 1304.43,335.87 1305.73,334.08 1307.03,335.56 1308.32,337.22 1309.62,334.64 1310.92,335.48 1312.22,338.11 1313.51,335.14 1314.81,337.61 1316.11,337.34 1317.41,334.58 1318.70,334.85 1320.00,336.14 1321.30,336.25 1322.59,335.66 1323.89,336.04 1325.19,335.78 1326.49,338.92 1327.78,355.11 1329.08,353.04 1330.38,355.16 1331.68,355.81 1332.97,357.81 1334.27,357.25 1335.57,357.64 1336.86,356.38 1338.16,356.48 1339.46,356.78 1340.76,354.65 1342.05,354.78 1343.35,353.66 1344.65,356.41 1345.95,355.09 1347.24,356.22 1348.54,357.60 1349.84,357.98 1351.14,358.24 1352.43,354.62 1353.73,355.97 1355.03,358.52 1356.32,363.26 1357.62,363.77 1358.92,363.89 1360.22,363.97 1361.51,363.98 1362.81,363.99 1364.11,364.00 1365.41,364.00 1366.70,364.00 1368.00,364.00 1368.00,364.00 1366.70,364.00 1365.41,364.00 1364.11,364.00 1362.81,364.00 1361.51,364.02 1360.22,364.03 1358.92,364.08 1357.62,364.25 1356.32,364.73 1355.03,369.06 1353.73,371.74 1352.43,371.91 1351.14,370.77 1349.84,370.37 1348.54,369.09 1347.24,370.50 1345.95,372.61 1344.65,370.29 1343.35,372.63 1342.05,372.04 1340.76,372.62 1339.46,372.78 1338.16,369.93 1336.86,371.60 1335.57,369.54 1334.27,369.77 1332.97,370.57 1331.68,371.31 1330.38,372.46 1329.08,373.38 1327.78,372.25 1326.49,383.48 1325.19,390.01 1323.89,393.14 1322.59,394.12 1321.30,393.32 1320.00,391.61 1318.70,390.06 1317.41,391.40 1316.11,392.04 1314.81,392.14 1313.51,391.00 1312.22,392.34 1310.92,389.81 1309.62,394.43 1308.32,394.60 1307.03,392.51 1305.73,390.94 1304.43,389.93 1303.14,391.63 1301.84,391.49 1300.54,390.96 1299.24,391.60 1297.95,392.15 1296.65,394.86 1295.35,392.61 1294.05,391.25 1292.76,392.72 1291.46,389.67 1290.16,391.23 1288.86,393.23 1287.57,390.22 1286.27,392.43 1284.97,392.00 1283.68,392.17 1282.38,393.29 1281.08,393.41 1279.78,393.73 1278.49,393.85 1277.19,392.03 1275.89,391.70 1274.59,390.99 1273.30,391.90 1272.00,390.63 1270.70,389.20 1269.41,391.80 1268.11,393.51 1266.81,390.36 1265.51,392.14 1264.22,394.60 1262.92,391.66 1261.62,388.24 1260.32,389.35 1259.03,392.42 1257.73,391.79 1256.43,392.56 1255.14,392.08 1253.84,393.65 1252.54,390.70 1251.24,394.08 1249.95,393.70 1248.65,392.54 1247.35,392.76 1246.05,392.46 1244.76,390.88 1243.46,392.98 1242.16,391.27 1240.86,390.23 1239.57,392.66 1238.27,392.87 1236.97,371.92 1235.68,373.28 1234.38,373.32 1233.08,372.43 1231.78,372.06 1230.49,372.87 1229.19,374.81 1227.89,372.18 1226.59,374.91 1225.30,374.08 1224.00,374.62 1222.70,374.57 1221.41,374.24 1220.11,373.38 1218.81,371.95 1217.51,372.12 1216.22,373.81 1214.92,373.87 1213.62,372.68 1212.32,373.76 1211.03,375.60 1209.73,374.90 1208.43,373.12 1207.14,373.47 1205.84,373.86 1204.54,373.84 1203.24,372.68 1201.95,372.57 1200.65,373.14 1199.35,374.25 1198.05,375.21 1196.76,376.35 1195.46,375.77 1194.16,373.00 1192.86,374.97 1191.57,375.03 1190.27,373.23 1188.97,374.74 1187.68,376.66 1186.38,374.33 1185.08,374.09 1183.78,374.19 1182.49,374.54 1181.19,378.50 1179.89,391.03 1178.59,392.98 1177.30,394.32 1176.00,392.40 1174.70,394.09 1173.41,393.83 1172.11,391.18 1170.81,394.51 1169.51,392.21 1168.22,394.19 1166.92,392.44 1165.62,394.38 1164.32,394.22 1163.03,393.97 1161.73,393.48 1160.43,394.38 1159.14,394.07 1157.84,390.44 1156.54,393.54 1155.24,393.25 1153.95,394.22 1152.65,394.35 1151.35,394.23 1150.05,393.60 1148.76,394.09 1147.46,394.18 1146.16,394.63 1144.86,394.15 1143.57,392.20 1142.27,394.50 1140.97,392.56 1139.68,391.40 1138.38,394.38 1137.08,394.19 1135.78,392.13 1134.49,394.64 1133.19,393.37 1131.89,393.86 1130.59,393.74 1129.30,393.68 1128.00,392.76 1126.70,393.54 1125.41,394.32 1124.11,394.32 1122.81,394.49 1121.51,394.25 1120.22,394.01 1118.92,394.36 1117.62,393.73 1116.32,394.32 1115.03,393.71 1113.73,391.61 1112.43,394.18 1111.14,392.59 1109.84,394.07 1108.54,393.99 1107.24,393.78 1105.95,394.35 1104.65,393.42 1103.35,393.54 1102.05,394.00 1100.76,393.94 1099.46,391.49 1098.16,393.36 1096.86,392.89 1095.57,393.95 1094.27,394.29 1092.97,394.66 1091.68,394.69 1090.38,393.39 1089.08,394.37 1087.78,394.42 1086.49,393.88 1085.19,392.39 1083.89,394.29 1082.59,392.94 1081.30,391.34 1080.00,394.01 1078.70,393.91 1077.41,391.33 1076.11,394.38 1074.81,393.85 1073.51,393.80 1072.22,392.13 1070.92,393.89 1069.62,393.01 1068.32,393.62 1067.03,393.74 1065.73,394.26 1064.43,394.87 1063.14,393.21 1061.84,370.89 1060.54,384.70 1059.24,393.78 1057.95,393.72 1056.65,392.50 1055.35,392.03 1054.05,391.37 1052.76,390.89 1051.46,392.28 1050.16,390.70 1048.86,390.17 1047.57,391.50 1046.27,391.40 1044.97,390.47 1043.68,390.78 1042.38,391.62 1041.08,393.09 1039.78,391.64 1038.49,394.57 1037.19,393.77 1035.89,394.35 1034.59,391.53 1033.30,393.84 1032.00,390.95 1030.70,393.72 1029.41,393.46 1028.11,392.28 1026.81,392.71 1025.51,391.87 1024.22,391.49 1022.92,391.27 1021.62,392.16 1020.32,390.73 1019.03,390.60 1017.73,392.01 1016.43,390.93 1015.14,391.20 1013.84,391.11 1012.54,390.80 1011.24,393.01 1009.95,390.79 1008.65,394.40 1007.35,390.61 1006.05,392.60 1004.76,391.52 1003.46,371.28 1002.16,385.78 1000.86,394.77 999.57,394.40 998.27,394.83 996.97,394.44 995.68,394.63 994.38,394.07 993.08,393.57 991.78,394.34 990.49,394.32 989.19,394.34 987.89,393.65 986.59,394.14 985.30,394.40 984.00,393.80 982.70,394.37 981.41,394.25 980.11,394.63 978.81,394.27 977.51,394.38 976.22,394.11 974.92,393.91 973.62,393.75 972.32,394.31 971.03,394.09 969.73,393.16 968.43,394.54 967.14,394.39 965.84,394.68 964.54,394.08 963.24,393.66 961.95,393.64 960.65,394.10 959.35,394.74 958.05,393.54 956.76,394.06 955.46,393.53 954.16,394.19 952.86,394.48 951.57,394.67 950.27,393.78 948.97,393.89 947.68,394.75 946.38,391.25 945.08,394.24 943.78,394.27 942.49,394.52 941.19,394.77 939.89,393.37 938.59,394.64 937.30,390.06 936.00,394.01 934.70,394.36 933.41,392.22 932.11,393.56 930.81,394.76 929.51,393.99 928.22,392.72 926.92,394.14 925.62,394.22 924.32,393.68 923.03,394.16 921.73,394.70 920.43,393.51 919.14,393.27 917.84,393.14 916.54,394.46 915.24,394.52 913.95,394.72 912.65,394.73 911.35,393.52 910.05,392.37 908.76,394.42 907.46,393.55 906.16,393.26 904.86,393.21 903.57,394.19 902.27,394.55 900.97,394.52 899.68,394.00 898.38,394.19 897.08,394.12 895.78,394.00 894.49,393.56 893.19,392.93 891.89,394.58 890.59,394.65 889.30,394.30 888.00,369.80 886.70,372.24 885.41,372.53 884.11,372.51 882.81,371.62 881.51,393.49 880.22,394.01 878.92,391.91 877.62,392.98 876.32,393.61 875.03,394.94 873.73,394.07 872.43,393.36 871.14,394.56 869.84,392.83 868.54,394.16 867.24,394.88 865.95,394.33 864.65,394.36 863.35,394.75 862.05,394.01 860.76,394.27 859.46,395.26 858.16,393.82 856.86,394.66 855.57,394.52 854.27,394.16 852.97,394.16 851.68,394.65 850.38,393.90 849.08,393.89 847.78,392.96 846.49,394.29 845.19,394.35 843.89,393.39 842.59,393.42 841.30,393.67 840.00,393.65 838.70,394.28 837.41,393.95 836.11,393.34 834.81,394.53 833.51,393.38 832.22,393.38 830.92,394.61 829.62,392.95 828.32,394.03 827.03,394.01 825.73,392.60 824.43,394.35 823.14,394.50 821.84,394.37 820.54,392.56 819.24,393.14 817.95,394.55 816.65,394.48 815.35,393.72 814.05,394.13 812.76,393.61 811.46,391.25 810.16,393.96 808.86,394.50 807.57,392.16 806.27,393.19 804.97,394.15 803.68,394.45 802.38,392.13 801.08,395.14 799.78,394.24 798.49,394.30 797.19,394.38 795.89,394.34 794.59,393.67 793.30,391.55 792.00,394.23 790.70,392.82 789.41,391.68 788.11,394.48 786.81,394.13 785.51,394.00 784.22,392.38 782.92,393.16 781.62,394.05 780.32,394.86 779.03,393.77 777.73,393.15 776.43,393.60 775.14,394.11 773.84,394.28 772.54,395.59 771.24,382.48 769.95,379.49 768.65,378.04 767.35,379.55 766.05,379.66 764.76,382.16 763.46,377.97 762.16,376.46 760.86,382.12 759.57,380.96 758.27,383.03 756.97,393.02 755.68,395.25 754.38,394.49 753.08,390.57 751.78,394.66 750.49,394.93 749.19,393.20 747.89,393.47 746.59,393.98 745.30,394.60 744.00,393.85 742.70,394.82 741.41,394.28 740.11,393.53 738.81,394.08 737.51,394.60 736.22,394.79 734.92,391.32 733.62,394.32 732.32,392.57 731.03,390.27 729.73,394.28 728.43,395.10 727.14,394.49 725.84,393.82 724.54,393.77 723.24,394.50 721.95,395.48 720.65,394.11 719.35,394.61 718.05,393.04 716.76,392.52 715.46,394.76 714.16,395.16 712.86,393.31 711.57,393.26 710.27,394.58 708.97,393.97 707.68,390.42 706.38,394.70 705.08,394.58 703.78,393.28 702.49,392.95 701.19,394.62 699.89,394.91 698.59,391.89 697.30,394.90 696.00,393.71 694.70,392.00 693.41,393.10 692.11,394.98 690.81,394.84 689.51,394.73 688.22,393.39 686.92,392.45 685.62,394.50 684.32,394.90 683.03,393.11 681.73,391.53 680.43,394.26 679.14,390.20 677.84,394.81 676.54,392.11 675.24,390.82 673.95,391.31 672.65,390.66 671.35,391.49 670.05,394.59 668.76,393.24 667.46,391.52 666.16,394.48 664.86,392.90 663.57,394.50 662.27,391.13 660.97,391.13 659.68,391.58 658.38,390.68 657.08,391.29 655.78,394.84 654.49,370.45 653.19,372.32 651.89,371.43 650.59,370.44 649.30,370.90 648.00,370.81 646.70,370.50 645.41,373.54 644.11,373.34 642.81,372.97 641.51,374.51 640.22,382.08 638.92,384.31 637.62,380.18 636.32,387.97 635.03,386.82 633.73,382.05 632.43,381.95 631.14,383.07 629.84,384.16 628.54,386.12 627.24,388.68 625.95,382.72 624.65,383.26 623.35,388.44 622.05,382.46 620.76,385.13 619.46,385.95 618.16,384.70 616.86,385.49 615.57,384.78 614.27,391.03 612.97,388.34 611.68,383.03 610.38,387.70 609.08,382.62 607.78,384.65 606.49,386.58 605.19,385.39 603.89,385.09 602.59,387.93 601.30,382.17 600.00,384.67 598.70,387.90 597.41,386.74 596.11,383.06 594.81,383.42 593.51,386.73 592.22,382.04 590.92,382.07 589.62,385.98 588.32,390.70 587.03,382.41 585.73,381.98 584.43,384.33 583.14,385.46 581.84,386.20 580.54,382.84 579.24,381.77 577.95,383.17 576.65,383.52 575.35,386.13 574.05,380.08 572.76,382.92 571.46,382.88 570.16,383.88 568.86,383.95 567.57,382.61 566.27,388.54 564.97,382.05 563.68,382.32 562.38,381.06 561.08,381.64 559.78,383.23 558.49,381.95 557.19,379.21 555.89,385.95 554.59,389.33 553.30,384.05 552.00,379.70 550.70,380.99 549.41,381.16 548.11,381.34 546.81,376.47 545.51,379.09 544.22,378.65 542.92,381.10 541.62,381.26 540.32,383.25 539.03,381.59 537.73,385.93 536.43,382.39 535.14,385.21 533.84,383.12 532.54,383.74 531.24,387.96 529.95,382.97 528.65,380.62 527.35,382.61 526.05,383.40 524.76,381.82 523.46,382.72 522.16,382.17 520.86,381.86 519.57,382.38 518.27,388.66 516.97,384.83 515.68,387.95 514.38,382.79 513.08,380.36 511.78,382.21 510.49,386.84 509.19,383.95 507.89,383.98 506.59,380.73 505.30,380.41 504.00,381.62 502.70,388.02 501.41,385.24 500.11,380.67 498.81,381.27 497.51,382.42 496.22,379.87 494.92,384.97 493.62,381.51 492.32,383.82 491.03,380.14 489.73,384.02 488.43,382.97 487.14,384.87 485.84,379.02 484.54,382.86 483.24,381.10 481.95,383.72 480.65,394.09 479.35,394.55 478.05,393.71 476.76,394.56 475.46,394.89 474.16,395.06 472.86,393.97 471.57,393.56 470.27,394.07 468.97,392.21 467.68,393.37 466.38,394.80 465.08,394.21 463.78,394.06 462.49,394.42 461.19,394.69 459.89,394.38 458.59,394.46 457.30,392.61 456.00,392.88 454.70,394.55 453.41,393.51 452.11,394.95 450.81,394.60 449.51,394.20 448.22,392.67 446.92,392.34 445.62,394.07 444.32,393.70 443.03,394.61 441.73,393.36 440.43,394.95 439.14,394.64 437.84,395.39 436.54,394.00 435.24,394.89 433.95,392.17 432.65,394.73 431.35,394.71 430.05,395.63 428.76,393.16 427.46,393.64 426.16,394.20 424.86,393.88 423.57,394.04 422.27,394.79 420.97,393.29 419.68,393.84 418.38,394.39 417.08,394.59 415.78,394.27 414.49,394.19 413.19,393.13 411.89,394.66 410.59,391.61 409.30,394.81 408.00,394.99 406.70,393.33 405.41,394.69 404.11,394.86 402.81,394.53 401.51,394.30 400.22,395.20 398.92,394.51 397.62,393.27 396.32,394.58 395.03,393.79 393.73,395.52 392.43,395.10 391.14,394.64 389.84,393.90 388.54,395.22 387.24,394.12 385.95,395.55 384.65,393.44 383.35,394.89 382.05,394.29 380.76,394.54 379.46,395.26 378.16,394.58 376.86,394.09 375.57,394.50 374.27,393.45 372.97,394.00 371.68,395.15 370.38,394.23 369.08,394.52 367.78,394.53 366.49,393.04 365.19,391.91 363.89,394.66 362.59,394.99 361.30,394.01 360.00,394.15 358.70,394.82 357.41,394.85 356.11,394.88 354.81,394.68 353.51,394.14 352.22,392.98 350.92,394.35 349.62,395.69 348.32,393.79 347.03,394.37 345.73,394.55 344.43,393.48 343.14,391.93 341.84,395.47 340.54,394.47 339.24,394.58 337.95,394.82 336.65,394.47 335.35,395.47 334.05,393.82 332.76,394.91 331.46,395.01 330.16,393.45 328.86,393.62 327.57,394.88 326.27,394.77 324.97,392.12 323.68,394.30 322.38,394.74 321.08,394.46 319.78,394.21 318.49,394.65 317.19,392.22 315.89,394.23 314.59,393.66 313.30,394.37 312.00,393.61 310.70,394.59 309.41,393.39 308.11,392.28 306.81,394.58 305.51,395.49 304.22,375.91 302.92,376.59 301.62,380.50 300.32,383.59 299.03,385.90 297.73,386.64 296.43,378.38 295.14,383.46 293.84,381.05 292.54,379.74 291.24,382.98 289.95,383.20 288.65,381.25 287.35,382.74 286.05,384.55 284.76,382.08 283.46,385.06 282.16,381.90 280.86,379.42 279.57,384.57 278.27,381.69 276.97,384.61 275.68,383.03 274.38,381.04 273.08,384.16 271.78,380.38 270.49,384.01 269.19,388.07 267.89,388.62 266.59,386.96 265.30,380.27 264.00,386.51 262.70,383.28 261.41,384.24 260.11,378.90 258.81,382.75 257.51,381.74 256.22,381.03 254.92,383.29 253.62,381.85 252.32,384.33 251.03,382.43 249.73,379.55 248.43,383.26 247.14,389.97 245.84,381.71 244.54,382.45 243.24,380.65 241.95,381.11 240.65,382.96 239.35,387.32 238.05,384.32 236.76,387.98 235.46,381.95 234.16,379.45 232.86,381.83 231.57,381.18 230.27,380.84 228.97,379.24 227.68,382.94 226.38,380.15 225.08,382.02 223.78,382.66 222.49,382.54 221.19,382.48 219.89,381.35 218.59,389.20 217.30,380.68 216.00,382.52 214.70,383.46 213.41,377.02 212.11,379.80 210.81,381.02 209.51,379.28 208.22,380.26 206.92,380.83 205.62,381.15 204.32,388.65 203.03,381.73 201.73,378.26 200.43,377.02 199.14,382.35 197.84,380.98 196.54,387.86 195.24,382.98 193.95,382.41 192.65,383.84 191.35,377.97 190.05,378.27 188.76,385.43 187.46,380.78 186.16,379.62 184.86,381.36 183.57,378.74 182.27,389.59 180.97,375.68 179.68,381.25 178.38,382.20 177.08,380.94 175.78,383.13 174.49,385.97 173.19,380.55 171.89,383.88 170.59,378.37 169.30,380.21 168.00,380.12 166.70,380.22 165.41,379.77 164.11,378.18 162.81,383.02 161.51,381.24 160.22,382.79 158.92,379.49 157.62,379.27 156.32,382.96 155.03,380.84 153.73,379.83 152.43,381.36 151.14,382.69 149.84,380.96 148.54,381.47 147.24,382.51 145.95,386.72 144.65,379.06 143.35,378.62 142.05,377.17 140.76,375.80 139.46,376.53 138.16,383.87 136.86,376.69 135.57,379.35 134.27,377.76 132.97,381.69 131.68,382.17 130.38,384.64 129.08,380.65 127.78,376.79 126.49,378.62 125.19,375.70 123.89,387.53 122.59,379.13 121.30,381.39 120.00,379.40 118.70,378.75 117.41,380.61 116.11,383.71 114.81,379.19 113.51,376.51 112.22,376.21 110.92,378.53 109.62,382.07 108.32,379.71 107.03,377.26 105.73,376.99 104.43,375.76 103.14,376.36 101.84,383.26 100.54,377.23 99.24,375.94 97.95,375.59 96.65,373.77 95.35,376.09 94.05,382.02 92.76,375.69 91.46,376.28 90.16,376.15 88.86,374.55 87.57,382.44 86.27,375.48 84.97,375.19 83.68,375.24 82.38,375.51 81.08,374.79 79.78,381.43 78.49,375.50 77.19,375.07 75.89,374.61 74.59,375.96 73.30,381.75 72.00,380.73" fill="#c2410c" fill-opacity="0.9"/><line x1="72.0" y1="364.0" x2="1368.0" y2="364.0" stroke="#d4c9b8" stroke-opacity="0.8"/><text x="72.0" y="420.0" font-size="12" fill="#5c6773">0:00</text><text x="1326.0" y="420.0" font-size="12" fill="#5c6773">5:29</text><text x="80.0" y="350.0" font-size="12" font-weight="700" fill="#111827">mix-in window 0:00–0:09</text></svg>